<?xml version="1.0" standalone="no"?>
<!DOCTYPE svg PUBLIC "-//W3C//DTD SVG 20010904//EN"
 "http://www.w3.org/TR/2001/REC-SVG-20010904/DTD/svg10.dtd">
<svg version="1.0" xmlns="http://www.w3.org/2000/svg"
 width="512.000000pt" height="512.000000pt" viewBox="0 0 512.000000 512.000000"
 preserveAspectRatio="xMidYMid meet">

<g transform="translate(0.000000,512.000000) scale(0.100000,-0.100000)"
fill="#000000" stroke="none">
<path d="M910 4674 c-177 -46 -335 -175 -415 -339 -70 -141 -66 -20 -63 -1801
l3 -1609 26 -67 c38 -98 86 -172 155 -242 70 -69 144 -117 242 -155 l67 -26
1178 -3 c1311 -3 1241 -6 1387 66 110 54 223 168 279 282 56 115 71 192 71
379 l0 155 -193 -192 c-271 -268 -280 -272 -667 -272 -315 0 -386 18 -497 122
-62 60 -95 112 -118 190 -14 48 -16 101 -13 355 l3 298 29 65 c27 61 72 108
655 693 l626 627 -473 0 c-391 0 -486 3 -549 16 -188 39 -353 164 -439 336
-67 134 -67 133 -72 661 l-3 477 -582 -1 c-474 0 -592 -3 -637 -15z"/>
<path d="M2560 4116 c0 -264 3 -323 16 -354 19 -47 58 -88 106 -113 36 -18 60
-19 416 -17 l379 3 -439 385 c-242 212 -448 391 -459 399 -19 13 -19 9 -19
-303z"/>
<path d="M3980 3188 c-28 -7 -179 -154 -716 -691 -589 -590 -682 -688 -692
-723 -8 -26 -12 -132 -12 -288 0 -268 4 -292 58 -349 61 -65 74 -67 367 -67
217 0 272 3 303 15 26 11 237 216 690 668 359 359 665 669 679 690 32 46 42
134 23 193 -18 55 -462 503 -534 539 -53 26 -105 31 -166 13z"/>
</g>
</svg>
