<?xml version="1.0" standalone="no"?>
<!DOCTYPE svg PUBLIC "-//W3C//DTD SVG 20010904//EN"
 "http://www.w3.org/TR/2001/REC-SVG-20010904/DTD/svg10.dtd">
<svg version="1.0" xmlns="http://www.w3.org/2000/svg"
 width="512.000000pt" height="512.000000pt" viewBox="0 0 512.000000 512.000000"
 preserveAspectRatio="xMidYMid meet">

<g transform="translate(0.000000,512.000000) scale(0.100000,-0.100000)"
fill="#000000" stroke="none">
<path d="M1148 4630 c-310 -54 -552 -271 -640 -577 l-23 -78 0 -1255 0 -1255
23 -78 c79 -275 277 -475 554 -559 71 -22 87 -22 640 -26 551 -3 569 -2 613
17 36 16 50 29 65 63 40 88 12 184 -62 218 -41 19 -70 20 -565 20 -342 0 -540
4 -575 11 -182 38 -329 185 -367 367 -8 37 -11 407 -10 1230 0 1079 2 1182 17
1243 45 170 185 301 360 338 36 8 342 11 982 11 640 0 946 -3 982 -11 182 -38
329 -185 367 -367 7 -35 11 -255 11 -655 0 -575 1 -604 20 -645 34 -74 130
-102 218 -62 34 15 47 29 63 65 19 44 20 62 17 693 -4 636 -4 648 -26 720 -84
275 -278 469 -554 554 l-73 23 -995 1 c-547 1 -1016 -2 -1042 -6z"/>
<path d="M1362 3660 c-33 -15 -47 -29 -62 -62 -40 -88 -12 -184 62 -218 41
-19 72 -20 798 -20 726 0 757 1 798 20 108 49 108 231 0 280 -41 19 -72 20
-798 20 -726 0 -757 -1 -798 -20z"/>
<path d="M1362 2860 c-33 -15 -47 -29 -62 -62 -40 -88 -12 -184 62 -218 41
-19 72 -20 798 -20 726 0 757 1 798 20 108 49 108 231 0 280 -41 19 -72 20
-798 20 -726 0 -757 -1 -798 -20z"/>
<path d="M4171 2515 c-116 -33 -133 -47 -744 -649 -323 -318 -599 -598 -612
-621 -14 -23 -79 -201 -145 -397 -107 -313 -120 -359 -114 -397 8 -47 41 -94
85 -116 31 -16 90 -20 104 -6 6 4 60 25 120 46 61 20 202 68 315 107 113 38
232 84 265 101 50 26 157 127 641 610 440 438 590 594 617 640 69 116 83 262
39 405 -36 115 -125 206 -253 259 -81 33 -233 42 -318 18z m193 -298 c47 -26
86 -93 86 -146 0 -88 8 -79 -572 -658 l-553 -552 -172 -54 c-95 -30 -173 -51
-173 -48 0 3 23 77 50 164 28 87 50 161 50 165 0 15 1117 1125 1145 1138 44
20 95 17 139 -9z"/>
<path d="M1362 2060 c-108 -49 -108 -231 0 -280 41 -19 69 -20 558 -20 489 0
517 1 558 20 108 49 108 231 0 280 -41 19 -69 20 -558 20 -489 0 -517 -1 -558
-20z"/>
</g>
</svg>
