<?xml version="1.0" standalone="no"?>
<!DOCTYPE svg PUBLIC "-//W3C//DTD SVG 20010904//EN"
 "http://www.w3.org/TR/2001/REC-SVG-20010904/DTD/svg10.dtd">
<svg version="1.0" xmlns="http://www.w3.org/2000/svg"
 width="512.000000pt" height="512.000000pt" viewBox="0 0 512.000000 512.000000"
 preserveAspectRatio="xMidYMid meet">

<g transform="translate(0.000000,512.000000) scale(0.100000,-0.100000)"
fill="#000000" stroke="none">
<path d="M2389 4680 c-630 -107 -1030 -737 -853 -1346 105 -364 391 -642 762
-741 86 -23 116 -26 262 -26 146 0 176 3 262 26 372 99 657 376 762 741 174
601 -218 1231 -834 1342 -80 14 -286 17 -361 4z"/>
<path d="M1993 2339 c-656 -63 -1194 -549 -1324 -1196 -27 -134 -39 -506 -19
-568 16 -47 63 -101 111 -126 37 -19 75 -19 1796 -19 1679 0 1760 1 1798 19
49 22 99 77 115 127 20 58 7 442 -18 565 -62 297 -201 557 -413 768 -120 121
-241 207 -394 282 -184 89 -326 129 -532 149 -124 12 -997 11 -1120 -1z"/>
</g>
</svg>
